<svg width="120" height="120" viewBox="0 0 120 120" fill="none" xmlns="http://www.w3.org/2000/svg">
<g clip-path="url(#clip0)">
<path d="M27.0032 63.562L59.3427 78.4491L91.6817 63.562L59.3427 62.2222L27.0032 63.562Z" fill="#FCBF92"/>
<path d="M59.4422 20L27.0181 36.1708V58.9877H65.8975V23.2278L59.4422 20Z" fill="#9D5025"/>
<path d="M27.0181 75.0727L59.4609 98.0261L91.8068 75.0727L59.3911 70.356L27.0181 75.0727Z" fill="#FCBF92"/>
<path d="M59.442 58.9878H76.5483V34.6406L71.5531 32.6426L59.442 36.1751V58.9878Z" fill="#9D5025"/>
<path d="M71.5532 58.9879H84.7754V43.1958L80.9935 42.0615L71.5532 43.6639V58.9879Z" fill="#9D5025"/>
<path d="M80.9932 40.8231V58.9877H91.6818L91.8068 40.7424L88.5601 39.4453L80.9932 40.8231Z" fill="#9D5025"/>
<path d="M59.4422 20V58.9877H65.8972V23.2278L59.4422 20Z" fill="#F68534"/>
<path d="M76.5486 34.6404L71.5534 32.6421V58.9875H76.5484L76.5486 34.6404Z" fill="#F68534"/>
<path d="M84.7756 43.1956L80.9935 42.0615V58.9877H84.7754L84.7756 43.1956Z" fill="#F68534"/>
<path d="M88.5601 58.9877H91.8068V40.7424L88.5601 39.4453V58.9877Z" fill="#F68534"/>
<path d="M59.3427 66.7961V78.4489L91.6817 70.3879V63.562L59.3427 66.7961Z" fill="#F68534"/>
<path d="M59.3427 86.52V98.0259L91.8068 81.7946V75.0728L59.3427 86.52Z" fill="#F68534"/>
<path d="M27.0181 81.8645L59.3427 98.0259V86.4357L27.0179 75.0723L27.0181 81.8645Z" fill="#9D5025"/>
<path d="M27.0032 70.3874L59.3427 78.4486V66.7956L27.0032 63.5615V70.3874Z" fill="#9D5025"/>
</g>
<defs>
<clipPath id="clip0">
<rect width="64.81" height="78.22" fill="white" transform="translate(27 20)"/>
</clipPath>
</defs>
</svg>
