<svg width="303" height="298" xmlns="http://www.w3.org/2000/svg">
 <title>micronaut_mini_copy_tm</title>

 <g>
  <title>Layer 1</title>
  <path id="svg_1" fill="#231f20" d="m202.731,152.918a5.866,5.866 0 1 0 -4.141,-7.187a5.866,5.866 0 0 0 4.141,7.187z"/>
  <path id="svg_2" fill="#231f20" d="m197.582,125.537a5.866,5.866 0 1 0 -7.182,-4.137a5.865,5.865 0 0 0 7.182,4.137z"/>
  <path id="svg_3" fill="#231f20" d="m171.075,96.164a5.867,5.867 0 1 0 4.153,-1.723a5.865,5.865 0 0 0 -4.153,1.723z"/>
  <path id="svg_4" fill="#231f20" d="m149,88.1a5.866,5.866 0 1 0 4.142,7.187a5.867,5.867 0 0 0 -4.142,-7.187z"/>
  <path id="svg_5" fill="#231f20" d="m121.53,107.716a5.865,5.865 0 1 0 -7.187,-4.141a5.865,5.865 0 0 0 7.187,4.141z"/>
  <path id="svg_6" fill="#231f20" d="m96.3,118.754a5.841,5.841 0 1 0 4.152,-1.733a5.864,5.864 0 0 0 -4.152,1.733z"/>
  <path id="svg_7" fill="#231f20" d="m95.448,145.06a5.865,5.865 0 1 0 4.142,7.186a5.867,5.867 0 0 0 -4.142,-7.186z"/>
  <path id="svg_8" fill="#231f20" d="m100.664,172.44a5.844,5.844 0 1 0 4.456,0.575a5.867,5.867 0 0 0 -4.456,-0.575z"/>
  <path id="svg_9" fill="#231f20" d="m127.172,201.813a5.821,5.821 0 1 0 -4.142,1.731a5.865,5.865 0 0 0 4.142,-1.731z"/>
  <path id="svg_10" fill="#231f20" d="m149.358,209.873a5.866,5.866 0 1 0 -4.164,-7.142a5.865,5.865 0 0 0 4.164,7.142z"/>
  <path id="svg_11" fill="#231f20" d="m176.716,190.261a5.866,5.866 0 1 0 7.184,4.139a5.867,5.867 0 0 0 -7.184,-4.139z"/>
  <path id="svg_12" fill="#231f20" d="m201.97,179.246a5.865,5.865 0 1 0 -8.306,0a5.864,5.864 0 0 0 8.306,0z"/>
  <path id="svg_13" fill="#231f20" d="m233.918,142.552a6.873,6.873 0 1 0 4.858,8.418a6.875,6.875 0 0 0 -4.858,-8.418z"/>
  <path id="svg_14" fill="#231f20" d="m222.881,114.3a6.873,6.873 0 1 0 -8.418,-4.859a6.875,6.875 0 0 0 8.418,4.859z"/>
  <path id="svg_15" fill="#231f20" d="m185.94,82.06a6.873,6.873 0 1 0 0,-9.717a6.876,6.876 0 0 0 0,9.717z"/>
  <path id="svg_16" fill="#231f20" d="m147.545,72.612a6.873,6.873 0 1 0 -4.858,-8.418a6.873,6.873 0 0 0 4.858,8.418z"/>
  <path id="svg_17" fill="#231f20" d="m106.015,70.351a6.873,6.873 0 1 0 8.418,4.858a6.872,6.872 0 0 0 -8.418,-4.858z"/>
  <path id="svg_18" fill="#231f20" d="m72.478,112.172a6.873,6.873 0 1 0 0,-9.717a6.875,6.875 0 0 0 0,9.717z"/>
  <path id="svg_19" fill="#231f20" d="m64.328,155.425a6.873,6.873 0 1 0 -4.858,-8.418a6.873,6.873 0 0 0 4.858,8.418z"/>
  <path id="svg_20" fill="#231f20" d="m75.366,183.679a6.873,6.873 0 1 0 8.418,4.858a6.871,6.871 0 0 0 -8.418,-4.858z"/>
  <path id="svg_21" fill="#231f20" d="m112.306,215.918a6.875,6.875 0 1 0 2.022,4.869a6.873,6.873 0 0 0 -2.022,-4.869z"/>
  <path id="svg_22" fill="#231f20" d="m150.7,225.366a6.873,6.873 0 1 0 4.859,8.418a6.871,6.871 0 0 0 -4.859,-8.418z"/>
  <path id="svg_23" fill="#231f20" d="m192.254,227.627a6.873,6.873 0 1 0 -8.441,-4.858a6.873,6.873 0 0 0 8.441,4.858z"/>
  <path id="svg_24" fill="#231f20" d="m225.791,185.806a6.873,6.873 0 1 0 0,9.716a6.872,6.872 0 0 0 0,-9.716z"/>
  <path id="svg_25" fill="#231f20" d="m258.254,170.358a8.955,8.955 0 1 0 -6.269,-10.858a8.955,8.955 0 0 0 6.269,10.858z"/>
  <path id="svg_26" fill="#231f20" d="m260.582,101.985a8.955,8.955 0 1 0 -6.246,10.858a8.954,8.954 0 0 0 6.246,-10.858z"/>
  <path id="svg_27" fill="#231f20" d="m222.209,52.731a8.956,8.956 0 1 0 0,12.538a8.957,8.957 0 0 0 0,-12.538z"/>
  <path id="svg_28" fill="#231f20" d="m159.634,46.127a8.955,8.955 0 1 0 -6.156,-10.858a8.955,8.955 0 0 0 6.156,10.858z"/>
  <path id="svg_29" fill="#231f20" d="m106.8,54.634a8.955,8.955 0 1 0 -10.86,-6.246a8.844,8.844 0 0 0 10.86,6.246z"/>
  <path id="svg_30" fill="#231f20" d="m65.291,75.925a8.955,8.955 0 1 0 0,12.515a8.82,8.82 0 0 0 0,-12.515z"/>
  <path id="svg_31" fill="#231f20" d="m39.993,127.619a8.956,8.956 0 1 0 6.268,10.859a8.958,8.958 0 0 0 -6.268,-10.859z"/>
  <path id="svg_32" fill="#231f20" d="m43.933,185.045a8.955,8.955 0 1 0 10.858,6.268a8.954,8.954 0 0 0 -10.858,-6.268z"/>
  <path id="svg_33" fill="#231f20" d="m88.552,232.821a8.955,8.955 0 1 0 0,12.537a8.955,8.955 0 0 0 0,-12.537z"/>
  <path id="svg_34" fill="#231f20" d="m138.612,251.851a8.955,8.955 0 1 0 6.269,10.858a8.954,8.954 0 0 0 -6.269,-10.858z"/>
  <path id="svg_35" fill="#231f20" d="m191.537,243.343a8.955,8.955 0 1 0 10.863,6.247a8.957,8.957 0 0 0 -10.863,-6.247z"/>
  <path id="svg_36" fill="#231f20" d="m245.493,222.075a8.956,8.956 0 1 0 -12.538,0a8.955,8.955 0 0 0 12.538,0z"/>
  <path id="svg_37" fill="#231f20" d="m289.888,176.022a10.322,10.322 0 1 0 6.285,4.806a10.321,10.321 0 0 0 -6.285,-4.806z"/>
  <path id="svg_38" fill="#231f20" d="m289.888,122.978a10.32,10.32 0 1 0 -7.844,-1.036a10.344,10.344 0 0 0 7.844,1.036z"/>
  <path id="svg_39" fill="#231f20" d="m243.03,55.216a10.32,10.32 0 1 0 -3.03,-7.309a10.321,10.321 0 0 0 3.03,7.309z"/>
  <path id="svg_40" fill="#231f20" d="m183.455,20.873a10.32,10.32 0 1 0 -6.271,-4.812a10.321,10.321 0 0 0 6.271,4.812z"/>
  <path id="svg_41" fill="#231f20" d="m114.813,20.873a10.321,10.321 0 1 0 -7.851,-1.018a10.321,10.321 0 0 0 7.851,1.018z"/>
  <path id="svg_42" fill="#231f20" d="m40.731,55.216a10.343,10.343 0 1 0 0,-14.619a10.344,10.344 0 0 0 0,14.619z"/>
  <path id="svg_43" fill="#231f20" d="m13.709,101.985a10.322,10.322 0 1 0 6.285,4.806a10.344,10.344 0 0 0 -6.285,-4.806z"/>
  <path id="svg_44" fill="#231f20" d="m8.358,176.022a10.3,10.3 0 1 0 7.842,1.02a10.321,10.321 0 0 0 -7.842,-1.02z"/>
  <path id="svg_45" fill="#231f20" d="m55.351,242.784a10.322,10.322 0 1 0 3.023,7.3a10.321,10.321 0 0 0 -3.023,-7.3z"/>
  <path id="svg_46" fill="#231f20" d="m114.791,277.1a10.322,10.322 0 1 0 6.285,4.806a10.321,10.321 0 0 0 -6.285,-4.806z"/>
  <path id="svg_47" fill="#231f20" d="m183.455,277.1a10.321,10.321 0 1 0 7.838,1.028a10.321,10.321 0 0 0 -7.838,-1.028z"/>
  <path id="svg_48" fill="#231f20" d="m257.515,242.761a10.3,10.3 0 1 0 3.044,7.31a10.32,10.32 0 0 0 -3.044,-7.31z"/>
  <path id="svg_49" fill="#231f20" fill-rule="evenodd" d="m179.94,155.157c-2.418,2.418 -4.656,4.791 -7.074,7.007a57.3,57.3 0 0 1 -5.776,4.612a10.32,10.32 0 0 1 -9.694,1.03a6.716,6.716 0 0 1 -4.59,-5.552c-3.493,2.821 -6.716,6.112 -11.552,6.313c-0.4,1.858 -0.806,3.784 -1.209,5.709a19.291,19.291 0 0 0 -0.515,2.53c0,1.231 -0.672,1.724 -1.881,1.97c-2.977,0.6 -9.4,2.239 -9.85,2.239c3.559,-16.814 7.1,-33.582 10.656,-50.172l10.791,0c-0.559,2.709 -5.574,26.6 -5.619,26.866c-0.291,2.843 1.522,4.478 4.3,3.694a21.4,21.4 0 0 0 4.478,-2.4c0.224,-0.134 0.291,-0.559 0.358,-0.873c1.9,-8.955 3.761,-17.8 5.642,-26.686a3.9,3.9 0 0 1 0.224,-0.672l10.746,0c-0.582,2.754 -4.231,20.328 -5.507,26.463a7.921,7.921 0 0 0 0,1.477a2.508,2.508 0 0 0 2.127,2.665a4.481,4.481 0 0 0 3.582,-0.4a30.767,30.767 0 0 0 3.358,-2.239a28.132,28.132 0 0 0 3.268,-2.821a3.9,3.9 0 0 1 3.737,-0.76z"/>
 </g>
</svg>