<?xml version="1.0" encoding="UTF-8" standalone="no"?>
<svg
   xmlns:dc="http://purl.org/dc/elements/1.1/"
   xmlns:cc="http://creativecommons.org/ns#"
   xmlns:rdf="http://www.w3.org/1999/02/22-rdf-syntax-ns#"
   xmlns:svg="http://www.w3.org/2000/svg"
   xmlns="http://www.w3.org/2000/svg"
   xmlns:sodipodi="http://sodipodi.sourceforge.net/DTD/sodipodi-0.dtd"
   xmlns:inkscape="http://www.inkscape.org/namespaces/inkscape"
   inkscape:version="1.0 (6e3e5246a0, 2020-05-07)"
   sodipodi:docname="waitrose2.svg"
   id="svg52"
   version="1.1"
   width="111"
   height="69.847">
  <metadata
     id="metadata58">
    <rdf:RDF>
      <cc:Work
         rdf:about="">
        <dc:format>image/svg+xml</dc:format>
        <dc:type
           rdf:resource="http://purl.org/dc/dcmitype/StillImage" />
        <dc:title></dc:title>
      </cc:Work>
    </rdf:RDF>
  </metadata>
  <defs
     id="defs56" />
  <sodipodi:namedview
     inkscape:current-layer="svg52"
     inkscape:window-maximized="1"
     inkscape:window-y="0"
     inkscape:window-x="2560"
     inkscape:cy="120.29254"
     inkscape:cx="215.5"
     inkscape:zoom="2.8584687"
     showgrid="false"
     id="namedview54"
     inkscape:window-height="1043"
     inkscape:window-width="1920"
     inkscape:pageshadow="2"
     inkscape:pageopacity="0"
     guidetolerance="10"
     gridtolerance="10"
     objecttolerance="10"
     borderopacity="1"
     bordercolor="#666666"
     pagecolor="#ffffff">
    <inkscape:grid
       id="grid135"
       type="xygrid" />
  </sodipodi:namedview>
  <g
     clip-path="none"
     id="g469">
    <path
       id="path2"
       fill="#ffffff"
       d="m 53.867151,34.960104 c 0,0.09104 0.03607,0.196658 0.109919,0.316883 0.07385,0.120236 0.158009,0.22413 0.255905,0.310867 0.145127,-0.08844 0.260198,-0.179477 0.345215,-0.270497 0.08587,-0.09102 0.128812,-0.198368 0.128812,-0.321166 0,-0.113354 -0.03951,-0.207825 -0.119368,-0.283382 -0.07986,-0.07558 -0.182053,-0.113354 -0.307429,-0.113354 -0.109918,0 -0.207817,0.03349 -0.289398,0.101332 -0.08244,0.06698 -0.123656,0.1537 -0.123656,0.259317 m -0.488626,2.146874 c 0,0.1331 0.05067,0.245599 0.152855,0.337494 0.10305,0.09101 0.224133,0.13652 0.364966,0.13652 0.238733,0 0.490342,-0.115064 0.756554,-0.346055 l -0.714474,-0.800354 c -0.175185,0.110779 -0.311725,0.219824 -0.411339,0.32632 -0.09961,0.105615 -0.148562,0.220699 -0.148562,0.346075 m 0.913702,-3.112074 c 0.317736,0 0.583088,0.08929 0.794341,0.26964 0.211247,0.179477 0.316872,0.409613 0.316872,0.689554 0,0.202664 -0.06269,0.390733 -0.188921,0.565047 -0.126236,0.175192 -0.319454,0.348661 -0.578794,0.518692 l 0.571923,0.661228 c 0.168315,-0.1683 0.322886,-0.389 0.46458,-0.661228 h 0.755693 c -0.198368,0.477465 -0.452558,0.868185 -0.761704,1.173914 l 0.836414,0.94461 h -1.039936 l -0.383859,-0.437963 c -0.210393,0.174337 -0.413054,0.300567 -0.608849,0.376125 -0.195793,0.07644 -0.429372,0.115084 -0.701595,0.115084 -0.335766,0 -0.618293,-0.101332 -0.849294,-0.303995 -0.230143,-0.202675 -0.345215,-0.450848 -0.345215,-0.744532 0,-0.244746 0.0833,-0.463715 0.249037,-0.656943 0.165737,-0.194072 0.401892,-0.372705 0.706745,-0.537574 -0.145129,-0.182061 -0.250754,-0.347786 -0.318593,-0.495503 -0.06698,-0.147697 -0.101332,-0.298845 -0.101332,-0.451693 0,-0.303131 0.110776,-0.549594 0.333191,-0.740226 0.221557,-0.189787 0.504084,-0.284237 0.849296,-0.284237"
       style="stroke-width:0.111" />
    <path
       id="path4"
       fill="#ffffff"
       d="m 60.711071,35.781927 c 0.214689,0 0.381284,-0.0498 0.502367,-0.147697 0.120222,-0.0979 0.180335,-0.243013 0.180335,-0.436241 0,-0.382996 -0.246459,-0.574493 -0.738516,-0.574493 h -0.548739 v 1.158431 z m 0.199231,-1.787023 c 0.389868,0 0.705886,0.113331 0.948911,0.338339 0.243026,0.224985 0.364966,0.515241 0.364966,0.870762 0,0.359805 -0.1228,0.650072 -0.369259,0.873336 -0.246459,0.222422 -0.571063,0.332323 -0.973815,0.332323 h -0.774587 v 1.746697 h -0.804639 v -4.161457 z"
       style="stroke-width:0.111" />
    <path
       id="path6"
       fill="#ffffff"
       d="m 64.473848,36.532565 h 1.343071 L 65.11447,34.885502 Z m 1.04938,-2.537584 1.836854,4.161467 h -0.848439 l -0.431947,-1.013319 h -1.849731 l -0.401893,1.013319 h -0.842428 l 1.714912,-4.161467 z"
       style="stroke-width:0.111" />
    <path
       id="path8"
       fill="#ffffff"
       d="m 69.731671,35.77025 c 0.21125,0 0.37613,-0.05325 0.496352,-0.158009 0.120223,-0.105618 0.180338,-0.249029 0.180338,-0.431934 0,-0.190655 -0.05925,-0.333212 -0.17862,-0.427662 -0.119365,-0.0936 -0.289396,-0.141701 -0.509235,-0.141701 h -0.500648 v 1.159306 z m 0.182052,-1.775024 c 0.391588,0 0.710182,0.108213 0.95578,0.324609 0.246461,0.216393 0.369262,0.498933 0.369262,0.845864 0,0.236152 -0.06011,0.442256 -0.182913,0.618303 -0.121941,0.175169 -0.303136,0.313443 -0.543586,0.414775 0.133107,0.07126 0.251612,0.169163 0.354662,0.291961 0.103049,0.1228 0.231861,0.33147 0.384716,0.622599 0.25333,0.504074 0.442254,0.851869 0.565912,1.042501 h -0.896527 c -0.06269,-0.09102 -0.145129,-0.237007 -0.250752,-0.437095 -0.230143,-0.443112 -0.399316,-0.741957 -0.506659,-0.89566 -0.106486,-0.153723 -0.209533,-0.262781 -0.309149,-0.327195 -0.09962,-0.06439 -0.212966,-0.0979 -0.342638,-0.0979 h -0.291973 v 1.757851 h -0.803782 v -4.160612 z"
       style="stroke-width:0.111" />
    <polygon
       id="polygon10"
       transform="matrix(0.85874292,0,0,0.85874292,52.411009,0.97339243)"
       points="27.879,39.1853 26.158,39.1853 26.158,43.2993 25.222,43.2993 25.222,39.1853 23.502,39.1853 23.502,38.4533 27.879,38.4533 "
       fill="#ffffff" />
    <polygon
       id="polygon12"
       transform="matrix(0.85874292,0,0,0.85874292,52.44691,0.97339243)"
       points="34.0284,38.4533 34.0284,43.2993 33.2234,43.2993 30.3284,39.8613 30.3284,43.2993 29.4124,43.2993 29.4124,38.4533 30.2344,38.4533 33.1134,41.8353 33.1134,38.4533 "
       fill="#ffffff" />
    <polygon
       id="polygon14"
       transform="matrix(0.85874292,0,0,0.85874292,52.247661,0.97339243)"
       points="39.1701,43.2993 35.9891,43.2993 35.9891,38.4533 39.1211,38.4533 39.1211,39.1853 36.9261,39.1853 36.9261,40.4583 39.0271,40.4583 39.0271,41.1893 36.9261,41.1893 36.9261,42.5663 39.1701,42.5663 "
       fill="#ffffff" />
    <path
       id="path16"
       fill="#ffffff"
       d="m 88.574964,35.77025 c 0.210392,0 0.37527,-0.05325 0.495495,-0.158009 0.120225,-0.105618 0.180335,-0.249029 0.180335,-0.431934 0,-0.190655 -0.05925,-0.333212 -0.17862,-0.427662 -0.119362,-0.0936 -0.289396,-0.141701 -0.509235,-0.141701 h -0.500646 v 1.159306 z m 0.181195,-1.775024 c 0.391585,0 0.710181,0.108213 0.956637,0.324609 0.245601,0.216393 0.369262,0.498933 0.369262,0.845864 0,0.236152 -0.06097,0.442256 -0.183774,0.618303 -0.12194,0.175169 -0.303135,0.313443 -0.543583,0.414775 0.133108,0.07126 0.251612,0.169163 0.354662,0.291961 0.10305,0.1228 0.231861,0.33147 0.384717,0.622599 0.25333,0.504074 0.442254,0.851869 0.565909,1.042501 h -0.896524 c -0.06183,-0.09102 -0.14513,-0.237007 -0.250755,-0.437095 -0.230143,-0.443112 -0.398456,-0.741957 -0.505799,-0.89566 -0.107343,-0.153723 -0.21039,-0.262781 -0.310004,-0.327195 -0.09962,-0.06439 -0.212971,-0.0979 -0.34264,-0.0979 h -0.291974 v 1.757851 h -0.803782 v -4.160612 z"
       style="stroke-width:0.111" />
    <path
       id="path18"
       fill="#ffffff"
       d="m 93.073317,33.941225 c 0.405328,0 0.795195,0.101319 1.169608,0.303983 v 0.715352 c -0.430232,-0.260206 -0.812371,-0.390743 -1.146424,-0.390743 -0.201804,0 -0.36067,0.03865 -0.474027,0.11765 -0.114211,0.07901 -0.171746,0.182905 -0.171746,0.314294 0,0.157154 0.105625,0.302299 0.318596,0.434533 0.06011,0.04035 0.288536,0.151128 0.68785,0.334054 0.341779,0.160574 0.588238,0.339193 0.739378,0.535854 0.15028,0.196658 0.22585,0.43281 0.22585,0.708456 0,0.35811 -0.128814,0.645777 -0.385577,0.865612 -0.257623,0.219847 -0.589955,0.32977 -0.999576,0.32977 -0.266212,0 -0.494635,-0.0292 -0.686993,-0.08847 -0.190641,-0.05837 -0.40533,-0.158861 -0.644057,-0.302275 v -0.791762 c 0.444827,0.368399 0.863894,0.553035 1.25634,0.553035 0.19751,0 0.355519,-0.04293 0.477459,-0.127962 0.120225,-0.085 0.181198,-0.198355 0.181198,-0.339191 0,-0.192352 -0.10477,-0.349506 -0.31516,-0.470597 -0.175184,-0.09531 -0.400174,-0.209535 -0.676691,-0.342624 -0.327179,-0.149428 -0.57278,-0.322889 -0.734225,-0.521278 -0.162302,-0.198357 -0.242162,-0.428503 -0.242162,-0.690432 0,-0.349504 0.129666,-0.628593 0.389867,-0.836394 0.260199,-0.206973 0.603696,-0.310867 1.030492,-0.310867"
       style="stroke-width:0.111" />
    <rect
       id="rect20"
       y="6.8364329e-08"
       x="34.035168"
       width="76.964828"
       height="69.847183"
       fill-rule="evenodd"
       fill="#578626"
       style="stroke-width:0.12006" />
    <rect
       id="rect22"
       y="6.8364329e-08"
       x="22.866127"
       width="8.9352322"
       height="69.847183"
       fill-rule="evenodd"
       fill="#c4d201"
       style="stroke-width:0.12006" />
    <rect
       id="rect24"
       y="6.8364329e-08"
       x="11.209656"
       width="4.4676161"
       height="69.847183"
       fill-rule="evenodd"
       fill="#02462f"
       style="stroke-width:0.12006" />
    <rect
       id="rect26"
       y="6.8364329e-08"
       x="1.597099e-08"
       width="2.2338088"
       height="69.847183"
       fill-rule="evenodd"
       fill="#9f9b15"
       style="stroke-width:0.12006" />
    <path
       id="path28"
       fill-rule="evenodd"
       fill="#ffffff"
       d="m 100.79562,23.989941 v 7.760199 h 4.54398 v -1.00105 h -3.42298 v -2.412565 h 3.20613 v -1.00087 H 101.9168 V 24.99063 h 3.32122 v -1.000869 h -4.4424 m -49.667449,1.8e-4 -2.130157,5.347811 -2.174462,-5.347811 h -1.063364 l -2.162216,5.347811 -2.152668,-5.347811 h -1.120462 l 3.15786,7.828821 h 0.217393 l 2.586372,-6.349581 2.564218,6.349581 h 0.217213 l 3.169387,-7.828821 h -1.108934 m 11.524893,7.765242 h 1.121724 V 23.994804 H 62.653244 Z M 95.945423,28.60831 95.096389,28.095358 c -0.532404,-0.323298 -0.86921,-0.646414 -1.111816,-0.945936 -0.251615,-0.311049 -0.37733,-0.693421 -0.37733,-1.100469 0,-0.610931 0.213068,-1.107133 0.639568,-1.488605 0.42632,-0.381292 0.994746,-0.565544 1.6761,-0.565544 0.718636,0 1.249958,0.181911 1.793351,0.545732 v 1.260767 c -0.562484,-0.537807 -1.16747,-0.806891 -1.815504,-0.806891 -0.365082,0 -0.664605,0.08393 -0.899108,0.252153 -0.235042,0.167502 -0.352115,0.387596 -0.352115,0.649475 0,0.232341 0.05674,0.425419 0.229641,0.628222 0.172905,0.202623 0.480352,0.440368 0.863444,0.663524 l 0.885419,0.502145 c 0.952058,0.565182 1.39567,1.28508 1.39567,2.158612 0,0.622099 -0.216314,1.13469 -0.635428,1.523726 -0.418933,0.388678 -0.956743,0.595802 -1.626928,0.583556 -0.769428,-0.01332 -1.458527,-0.226399 -2.1062,-0.714315 v -1.410797 c 0.603366,0.760062 1.301471,1.123701 2.094673,1.123701 0.350132,0 0.641549,-0.08069 0.87443,-0.274306 0.232703,-0.193797 0.359498,-0.436225 0.359498,-0.727642 0,-0.472608 -0.353013,-0.92036 -1.038151,-1.344156 M 57.799266,28.51195 56.540119,25.7008 55.372111,28.51195 Z m -1.64152,-4.517147 h 0.785277 l 3.499709,7.805946 H 59.299038 L 58.258904,29.500752 H 54.92868 l -0.975294,2.299998 h -1.148378 l 3.352738,-7.805765 z m 9.889139,0 h 6.541217 v 0.987361 h -2.708845 v 6.773018 h -1.121183 v -6.773018 h -2.711189 z m 10.544475,0.939632 h -0.335184 v 2.449489 h 0.424517 c 0.566445,0 0.954399,-0.04791 1.165129,-0.144088 0.204783,-0.09148 0.376609,-0.243868 0.491699,-0.436405 0.117251,-0.194518 0.175607,-0.415513 0.175607,-0.663704 0,-0.244408 -0.06502,-0.465583 -0.195419,-0.664063 -0.130401,-0.197761 -0.313752,-0.337526 -0.550236,-0.419115 -0.236484,-0.08141 -0.628582,-0.122294 -1.176113,-0.122294 z m -1.475278,6.816062 V 23.99012 h 1.977961 c 0.789601,0 1.416563,0.194159 1.880345,0.583195 0.463241,0.388856 0.695221,0.914596 0.695221,1.577399 0,0.452075 -0.113468,0.842552 -0.340407,1.172333 -0.227658,0.3296 -0.533122,0.575629 -0.957461,0.738449 0.249271,0.163358 0.493499,0.385613 0.731786,0.666945 0.238284,0.281332 0.56158,0.77195 0.993664,1.472035 0.271965,0.440727 0.501604,0.77195 0.665322,0.994205 l 0.413533,0.555816 h -1.344339 c 0,0 -0.359137,-0.56158 -0.392638,-0.606248 l -0.563381,-0.87263 -0.416775,-0.605527 C 78.228012,29.347298 78.016206,29.083798 77.824387,28.894861 77.632032,28.706468 77.481098,28.580572 77.326566,28.49754 77.171671,28.41451 76.889981,28.372546 76.524178,28.372546 h -0.290697 v 3.377951 z m 11.926633,-6.831552 c -0.89298,0 -1.626927,0.277549 -2.201657,0.833187 -0.574731,0.555277 -0.862185,1.264368 -0.862185,2.127272 0,0.836788 0.288356,1.532913 0.864886,2.088371 0.576711,0.555456 1.298589,0.833185 2.165456,0.833185 0.870469,0 1.597032,-0.283312 2.179507,-0.850115 0.582113,-0.566265 0.873351,-1.271574 0.873351,-2.115748 0,-0.822199 -0.291238,-1.513639 -0.873351,-2.07468 -0.582475,-0.561041 -1.297871,-0.841472 -2.146007,-0.841472 z m -0.04466,-1.055442 c 1.205473,0 2.209583,0.379671 3.01143,1.138833 0.802028,0.758801 1.203132,1.7105 1.203132,2.854734 0,1.144238 -0.404346,2.091073 -1.213938,2.84123 -0.809412,0.749796 -1.830094,1.124602 -3.061862,1.124602 -1.176116,0 -2.155911,-0.374806 -2.939388,-1.124602 -0.783114,-0.750157 -1.174854,-1.689428 -1.174854,-2.818715 0,-1.159185 0.394261,-2.118448 1.183319,-2.877249 0.788881,-0.759162 1.786148,-1.138653 2.992161,-1.138653 z"
       style="stroke-width:0.180109" />
    <g
       id="g48"
       transform="matrix(0.87336052,0,0,0.87336052,51.9878,8.3748472)"
       fill="#ffffff">
      <path
         id="path30"
         d="m 2.0928,39.5773 c 0,0.106 0.042,0.229 0.128,0.369 0.086,0.14 0.184,0.261 0.298,0.362 0.169,-0.103 0.303,-0.209 0.402,-0.315 0.1,-0.106 0.15,-0.231 0.15,-0.374 0,-0.132 -0.046,-0.242 -0.139,-0.33 -0.093,-0.088 -0.212,-0.132 -0.358,-0.132 -0.128,0 -0.242,0.039 -0.337,0.118 -0.096,0.078 -0.144,0.179 -0.144,0.302 m -0.569,2.5 c 0,0.155 0.059,0.286 0.178,0.393 0.12,0.106 0.261,0.159 0.425,0.159 0.278,0 0.571,-0.134 0.881,-0.403 l -0.832,-0.932 c -0.204,0.129 -0.363,0.256 -0.479,0.38 -0.116,0.123 -0.173,0.257 -0.173,0.403 m 1.064,-3.624 c 0.37,0 0.679,0.104 0.925,0.314 0.246,0.209 0.369,0.477 0.369,0.803 0,0.236 -0.073,0.455 -0.22,0.658 -0.147,0.204 -0.372,0.406 -0.674,0.604 l 0.666,0.77 c 0.196,-0.196 0.376,-0.453 0.541,-0.77 h 0.88 c -0.231,0.556 -0.527,1.011 -0.887,1.367 l 0.974,1.1 h -1.211 l -0.447,-0.51 c -0.245,0.203 -0.481,0.35 -0.709,0.438 -0.228,0.089 -0.5,0.134 -0.817,0.134 -0.391,0 -0.72,-0.118 -0.989,-0.354 -0.268,-0.236 -0.402,-0.525 -0.402,-0.867 0,-0.285 0.097,-0.54 0.29,-0.765 0.193,-0.226 0.468,-0.434 0.823,-0.626 -0.169,-0.212 -0.292,-0.405 -0.371,-0.577 -0.078,-0.172 -0.118,-0.348 -0.118,-0.526 0,-0.353 0.129,-0.64 0.388,-0.862 0.258,-0.221 0.587,-0.331 0.989,-0.331" />
      <path
         id="path32"
         d="m 9.8881103,40.5343 c 0.2499997,0 0.4439997,-0.058 0.5849997,-0.172 0.14,-0.114 0.21,-0.283 0.21,-0.508 0,-0.446 -0.287,-0.669 -0.8599997,-0.669 h -0.639 v 1.349 z m 0.2319997,-2.081 c 0.454,0 0.822,0.132 1.105,0.394 0.283,0.262 0.425,0.6 0.425,1.014 0,0.419 -0.143,0.757 -0.43,1.017 -0.287,0.259 -0.665,0.387 -1.134,0.387 H 9.1841103 v 2.034 h -0.937 v -4.846 z" />
      <path
         id="path34"
         d="m 14.280595,41.4084 h 1.564 l -0.818,-1.918 z m 1.222,-2.955 2.139,4.846 h -0.988 l -0.503,-1.18 h -2.154 l -0.468,1.18 h -0.981 l 1.997,-4.846 z" />
      <path
         id="path36"
         d="m 20.337,40.5207 c 0.246,0 0.438,-0.062 0.578,-0.184 0.14,-0.123 0.21,-0.29 0.21,-0.503 0,-0.222 -0.069,-0.388 -0.208,-0.498 -0.139,-0.109 -0.337,-0.165 -0.593,-0.165 h -0.583 v 1.35 z m 0.212,-2.067 c 0.456,0 0.827,0.126 1.113,0.378 0.287,0.252 0.43,0.581 0.43,0.985 0,0.275 -0.07,0.515 -0.213,0.72 -0.142,0.204 -0.353,0.365 -0.633,0.483 0.155,0.083 0.293,0.197 0.413,0.34 0.12,0.143 0.27,0.386 0.448,0.725 0.295,0.587 0.515,0.992 0.659,1.214 h -1.044 c -0.073,-0.106 -0.169,-0.276 -0.292,-0.509 -0.268,-0.516 -0.465,-0.864 -0.59,-1.043 -0.124,-0.179 -0.244,-0.306 -0.36,-0.381 -0.116,-0.075 -0.248,-0.114 -0.399,-0.114 h -0.34 v 2.047 h -0.936 v -4.845 z" />
      <polygon
         id="polygon38"
         transform="translate(0.07266238)"
         points="23.502,38.4533 27.879,38.4533 27.879,39.1853 26.158,39.1853 26.158,43.2993 25.222,43.2993 25.222,39.1853 23.502,39.1853 " />
      <polygon
         id="polygon40"
         points="30.2344,38.4533 33.1134,41.8353 33.1134,38.4533 34.0284,38.4533 34.0284,43.2993 33.2234,43.2993 30.3284,39.8613 30.3284,43.2993 29.4124,43.2993 29.4124,38.4533 " />
      <polygon
         id="polygon42"
         transform="translate(-0.17438971)"
         points="36.9261,42.5663 39.1701,42.5663 39.1701,43.2993 35.9891,43.2993 35.9891,38.4533 39.1211,38.4533 39.1211,39.1853 36.9261,39.1853 36.9261,40.4583 39.0271,40.4583 39.0271,41.1893 36.9261,41.1893 " />
      <path
         id="path44"
         d="m 42.044761,40.5207 c 0.245,0 0.437,-0.062 0.577,-0.184 0.14,-0.123 0.21,-0.29 0.21,-0.503 0,-0.222 -0.069,-0.388 -0.208,-0.498 -0.139,-0.109 -0.337,-0.165 -0.593,-0.165 h -0.583 v 1.35 z m 0.211,-2.067 c 0.456,0 0.827,0.126 1.114,0.378 0.286,0.252 0.43,0.581 0.43,0.985 0,0.275 -0.071,0.515 -0.214,0.72 -0.142,0.204 -0.353,0.365 -0.633,0.483 0.155,0.083 0.293,0.197 0.413,0.34 0.12,0.143 0.27,0.386 0.448,0.725 0.295,0.587 0.515,0.992 0.659,1.214 h -1.044 c -0.072,-0.106 -0.169,-0.276 -0.292,-0.509 -0.268,-0.516 -0.464,-0.864 -0.589,-1.043 -0.125,-0.179 -0.245,-0.306 -0.361,-0.381 -0.116,-0.075 -0.248,-0.114 -0.399,-0.114 h -0.34 v 2.047 h -0.936 v -4.845 z" />
      <path
         id="path46"
         d="m 47.050541,38.3908 c 0.472,0 0.926,0.118 1.362,0.354 v 0.833 c -0.501,-0.303 -0.946,-0.455 -1.335,-0.455 -0.235,0 -0.42,0.045 -0.552,0.137 -0.133,0.092 -0.2,0.213 -0.2,0.366 0,0.183 0.123,0.352 0.371,0.506 0.07,0.047 0.336,0.176 0.801,0.389 0.398,0.187 0.685,0.395 0.861,0.624 0.175,0.229 0.263,0.504 0.263,0.825 0,0.417 -0.15,0.752 -0.449,1.008 -0.3,0.256 -0.687,0.384 -1.164,0.384 -0.31,0 -0.576,-0.034 -0.8,-0.103 -0.222,-0.068 -0.472,-0.185 -0.75,-0.352 v -0.922 c 0.518,0.429 1.006,0.644 1.463,0.644 0.23,0 0.414,-0.05 0.556,-0.149 0.14,-0.099 0.211,-0.231 0.211,-0.395 0,-0.224 -0.122,-0.407 -0.367,-0.548 -0.204,-0.111 -0.466,-0.244 -0.788,-0.399 -0.381,-0.174 -0.667,-0.376 -0.855,-0.607 -0.189,-0.231 -0.282,-0.499 -0.282,-0.804 0,-0.407 0.151,-0.732 0.454,-0.974 0.303,-0.241 0.703,-0.362 1.2,-0.362" />
    </g>
  </g>
</svg>
